<?xml version="1.0" encoding="UTF-8" standalone="no"?><svg xmlns="http://www.w3.org/2000/svg" xmlns:xlink="http://www.w3.org/1999/xlink" clip-rule="evenodd" stroke-miterlimit="10" viewBox="0 0 1024 768"><desc>SVG generated by Keynote</desc><defs></defs><g transform="matrix(1.00, 0.00, -0.00, -1.00, 0.0, 768.0)"><g><clipPath id="clip0x7ffd196fbba0"><path d="M 0.0 768.0 L 1024.0 768.0 L 1024.0 0.0 L 0.0 0.0 Z M 0.0 768.0 "></path></clipPath><g clip-path="url(#clip0x7ffd196fbba0)"><image xlink:href="../../524A64CF-8346-4612-AEB3-13D03E94EA2C/assets/8A97F831B44C6305266B84CB83B0E791.jpeg" width="2048.00" height="1536.00" transform="matrix(0.50, 0.00, -0.00, -0.50, 0.0, 768.0)"></image></g></g><g opacity="0.30"><g><clipPath id="clip0x7ffd195a2a10"><path d="M 39.0 595.0 L 986.0 595.0 L 986.0 599.0 L 39.0 599.0 Z M 39.0 595.0 "></path></clipPath><g clip-path="url(#clip0x7ffd195a2a10)"><path d="M 0.0 0.5 L 944.7 0.5 L 944.7 0.5 L 0.0 0.5 Z M 0.0 0.0 " fill="none" stroke="#434343" stroke-width="1.00" transform="matrix(1.00, 0.00, 0.00, -1.00, 40.0, 597.0)"></path></g></g></g><g opacity="0.30"><g><clipPath id="clip0x7ffd195a2000"><path d="M 39.0 716.0 L 986.0 716.0 L 986.0 720.0 L 39.0 720.0 Z M 39.0 716.0 "></path></clipPath><g clip-path="url(#clip0x7ffd195a2000)"><path d="M 0.0 0.5 L 944.7 0.5 L 944.7 0.5 L 0.0 0.5 Z M 0.0 0.0 " fill="none" stroke="#434343" stroke-width="1.00" transform="matrix(1.00, 0.00, 0.00, -1.00, 40.0, 718.0)"></path></g></g></g><text xml:space="preserve" font-family="BodoniSvtyTwoITCTT-Book,Bodoni 72" font-size="70.0" fill="#D93D2A" transform="matrix(1.00, 0.00, -0.00, -1.00, 201.2, 632.6)">M</text><text xml:space="preserve" font-family="BodoniSvtyTwoITCTT-Book,Bodoni 72" font-size="70.0" fill="#D93D2A" transform="matrix(1.00, 0.00, -0.00, -1.00, 254.1, 632.6)">o</text><text xml:space="preserve" font-family="BodoniSvtyTwoITCTT-Book,Bodoni 72" font-size="70.0" fill="#D93D2A" transform="matrix(1.00, 0.00, -0.00, -1.00, 287.7, 632.6)">b</text><text xml:space="preserve" font-family="BodoniSvtyTwoITCTT-Book,Bodoni 72" font-size="70.0" fill="#D93D2A" transform="matrix(1.00, 0.00, -0.00, -1.00, 321.3, 632.6)">i</text><text xml:space="preserve" font-family="BodoniSvtyTwoITCTT-Book,Bodoni 72" font-size="70.0" fill="#D93D2A" transform="matrix(1.00, 0.00, -0.00, -1.00, 338.9, 632.6)">l</text><text xml:space="preserve" font-family="BodoniSvtyTwoITCTT-Book,Bodoni 72" font-size="70.0" fill="#D93D2A" transform="matrix(1.00, 0.00, -0.00, -1.00, 355.3, 632.6)">e</text><text xml:space="preserve" font-family="BodoniSvtyTwoITCTT-Book,Bodoni 72" font-size="70.0" fill="#D93D2A" transform="matrix(1.00, 0.00, -0.00, -1.00, 385.4, 632.6)"> </text><text xml:space="preserve" font-family="BodoniSvtyTwoITCTT-Book,Bodoni 72" font-size="70.0" fill="#D93D2A" transform="matrix(1.00, 0.00, -0.00, -1.00, 398.5, 632.6)">a</text><text xml:space="preserve" font-family="BodoniSvtyTwoITCTT-Book,Bodoni 72" font-size="70.0" fill="#D93D2A" transform="matrix(1.00, 0.00, -0.00, -1.00, 426.3, 632.6)">d</text><text xml:space="preserve" font-family="BodoniSvtyTwoITCTT-Book,Bodoni 72" font-size="70.0" fill="#D93D2A" transform="matrix(1.00, 0.00, -0.00, -1.00, 459.6, 632.6)"> </text><text xml:space="preserve" font-family="BodoniSvtyTwoITCTT-Book,Bodoni 72" font-size="70.0" fill="#D93D2A" transform="matrix(1.00, 0.00, -0.00, -1.00, 472.6, 632.6)">h</text><text xml:space="preserve" font-family="BodoniSvtyTwoITCTT-Book,Bodoni 72" font-size="70.0" fill="#D93D2A" transform="matrix(1.00, 0.00, -0.00, -1.00, 506.0, 632.6)">o</text><text xml:space="preserve" font-family="BodoniSvtyTwoITCTT-Book,Bodoni 72" font-size="70.0" fill="#D93D2A" transform="matrix(1.00, 0.00, -0.00, -1.00, 539.6, 632.6)">c</text><text xml:space="preserve" font-family="BodoniSvtyTwoITCTT-Book,Bodoni 72" font-size="70.0" fill="#D93D2A" transform="matrix(1.00, 0.00, -0.00, -1.00, 568.2, 632.6)"> </text><text xml:space="preserve" font-family="BodoniSvtyTwoITCTT-Book,Bodoni 72" font-size="70.0" fill="#D93D2A" transform="matrix(1.00, 0.00, -0.00, -1.00, 581.2, 632.6)">n</text><text xml:space="preserve" font-family="BodoniSvtyTwoITCTT-Book,Bodoni 72" font-size="70.0" fill="#D93D2A" transform="matrix(1.00, 0.00, -0.00, -1.00, 615.5, 632.6)">e</text><text xml:space="preserve" font-family="BodoniSvtyTwoITCTT-Book,Bodoni 72" font-size="70.0" fill="#D93D2A" transform="matrix(1.00, 0.00, -0.00, -1.00, 645.6, 632.6)">t</text><text xml:space="preserve" font-family="BodoniSvtyTwoITCTT-Book,Bodoni 72" font-size="70.0" fill="#D93D2A" transform="matrix(1.00, 0.00, -0.00, -1.00, 665.4, 632.6)">w</text><text xml:space="preserve" font-family="BodoniSvtyTwoITCTT-Book,Bodoni 72" font-size="70.0" fill="#D93D2A" transform="matrix(1.00, 0.00, -0.00, -1.00, 707.4, 632.6)">o</text><text xml:space="preserve" font-family="BodoniSvtyTwoITCTT-Book,Bodoni 72" font-size="70.0" fill="#D93D2A" transform="matrix(1.00, 0.00, -0.00, -1.00, 741.0, 632.6)">r</text><text xml:space="preserve" font-family="BodoniSvtyTwoITCTT-Book,Bodoni 72" font-size="70.0" fill="#D93D2A" transform="matrix(1.00, 0.00, -0.00, -1.00, 764.6, 632.6)">k</text><text xml:space="preserve" font-family="BodoniSvtyTwoITCTT-Book,Bodoni 72" font-size="70.0" fill="#D93D2A" transform="matrix(1.00, 0.00, -0.00, -1.00, 797.5, 632.6)">s</text><text xml:space="preserve" font-family="Palatino-Roman,Palatino" font-size="24.0" fill="#404040" transform="matrix(1.00, 0.00, -0.00, -1.00, 229.5, 503.9)">I</text><text xml:space="preserve" font-family="Palatino-Roman,Palatino" font-size="24.0" fill="#404040" transform="matrix(1.00, 0.00, -0.00, -1.00, 237.5, 503.9)">n</text><text xml:space="preserve" font-family="Palatino-Roman,Palatino" font-size="24.0" fill="#404040" transform="matrix(1.00, 0.00, -0.00, -1.00, 251.5, 503.9)">s</text><text xml:space="preserve" font-family="Palatino-Roman,Palatino" font-size="24.0" fill="#404040" transform="matrix(1.00, 0.00, -0.00, -1.00, 261.7, 503.9)">t</text><text xml:space="preserve" font-family="Palatino-Roman,Palatino" font-size="24.0" fill="#404040" transform="matrix(1.00, 0.00, -0.00, -1.00, 269.5, 503.9)">a</text><text xml:space="preserve" font-family="Palatino-Roman,Palatino" font-size="24.0" fill="#404040" transform="matrix(1.00, 0.00, -0.00, -1.00, 281.5, 503.9)">l</text><text xml:space="preserve" font-family="Palatino-Roman,Palatino" font-size="24.0" fill="#404040" transform="matrix(1.00, 0.00, -0.00, -1.00, 288.5, 503.9)">l</text><text xml:space="preserve" font-family="Palatino-Roman,Palatino" font-size="24.0" fill="#404040" transform="matrix(1.00, 0.00, -0.00, -1.00, 295.5, 503.9)"> </text><text xml:space="preserve" font-family="Palatino-Roman,Palatino" font-size="24.0" fill="#404040" transform="matrix(1.00, 0.00, -0.00, -1.00, 301.5, 503.9)">s</text><text xml:space="preserve" font-family="Palatino-Roman,Palatino" font-size="24.0" fill="#404040" transform="matrix(1.00, 0.00, -0.00, -1.00, 311.6, 503.9)">o</text><text xml:space="preserve" font-family="Palatino-Roman,Palatino" font-size="24.0" fill="#404040" transform="matrix(1.00, 0.00, -0.00, -1.00, 324.7, 503.9)">f</text><text xml:space="preserve" font-family="Palatino-Roman,Palatino" font-size="24.0" fill="#404040" transform="matrix(1.00, 0.00, -0.00, -1.00, 332.7, 503.9)">t</text><text xml:space="preserve" font-family="Palatino-Roman,Palatino" font-size="24.0" fill="#404040" transform="matrix(1.00, 0.00, -0.00, -1.00, 340.6, 503.9)">w</text><text xml:space="preserve" font-family="Palatino-Roman,Palatino" font-size="24.0" fill="#404040" transform="matrix(1.00, 0.00, -0.00, -1.00, 360.6, 503.9)">a</text><text xml:space="preserve" font-family="Palatino-Roman,Palatino" font-size="24.0" fill="#404040" transform="matrix(1.00, 0.00, -0.00, -1.00, 372.6, 503.9)">r</text><text xml:space="preserve" font-family="Palatino-Roman,Palatino" font-size="24.0" fill="#404040" transform="matrix(1.00, 0.00, -0.00, -1.00, 381.6, 503.9)">e</text><text xml:space="preserve" font-family="Palatino-Roman,Palatino" font-size="24.0" fill="#404040" transform="matrix(1.00, 0.00, -0.00, -1.00, 393.1, 503.9)"> </text><text xml:space="preserve" font-family="Palatino-Roman,Palatino" font-size="24.0" fill="#404040" transform="matrix(1.00, 0.00, -0.00, -1.00, 399.1, 503.9)">o</text><text xml:space="preserve" font-family="Palatino-Roman,Palatino" font-size="24.0" fill="#404040" transform="matrix(1.00, 0.00, -0.00, -1.00, 412.2, 503.9)">n</text><text xml:space="preserve" font-family="Palatino-Roman,Palatino" font-size="24.0" fill="#404040" transform="matrix(1.00, 0.00, -0.00, -1.00, 426.2, 503.9)"> </text><text xml:space="preserve" font-family="Palatino-Roman,Palatino" font-size="24.0" fill="#404040" transform="matrix(1.00, 0.00, -0.00, -1.00, 432.2, 503.9)">a</text><text xml:space="preserve" font-family="Palatino-Roman,Palatino" font-size="24.0" fill="#404040" transform="matrix(1.00, 0.00, -0.00, -1.00, 444.2, 503.9)">l</text><text xml:space="preserve" font-family="Palatino-Roman,Palatino" font-size="24.0" fill="#404040" transform="matrix(1.00, 0.00, -0.00, -1.00, 451.2, 503.9)">l</text><text xml:space="preserve" font-family="Palatino-Roman,Palatino" font-size="24.0" fill="#404040" transform="matrix(1.00, 0.00, -0.00, -1.00, 458.2, 503.9)"> </text><text xml:space="preserve" font-family="Palatino-Roman,Palatino" font-size="24.0" fill="#404040" transform="matrix(1.00, 0.00, -0.00, -1.00, 464.2, 503.9)">t</text><text xml:space="preserve" font-family="Palatino-Roman,Palatino" font-size="24.0" fill="#404040" transform="matrix(1.00, 0.00, -0.00, -1.00, 472.0, 503.9)">y</text><text xml:space="preserve" font-family="Palatino-Roman,Palatino" font-size="24.0" fill="#404040" transform="matrix(1.00, 0.00, -0.00, -1.00, 485.4, 503.9)">p</text><text xml:space="preserve" font-family="Palatino-Roman,Palatino" font-size="24.0" fill="#404040" transform="matrix(1.00, 0.00, -0.00, -1.00, 499.8, 503.9)">e</text><text xml:space="preserve" font-family="Palatino-Roman,Palatino" font-size="24.0" fill="#404040" transform="matrix(1.00, 0.00, -0.00, -1.00, 511.3, 503.9)">s</text><text xml:space="preserve" font-family="Palatino-Roman,Palatino" font-size="24.0" fill="#404040" transform="matrix(1.00, 0.00, -0.00, -1.00, 521.5, 503.9)"> </text><text xml:space="preserve" font-family="Palatino-Roman,Palatino" font-size="24.0" fill="#404040" transform="matrix(1.00, 0.00, -0.00, -1.00, 527.5, 503.9)">o</text><text xml:space="preserve" font-family="Palatino-Roman,Palatino" font-size="24.0" fill="#404040" transform="matrix(1.00, 0.00, -0.00, -1.00, 540.5, 503.9)">f</text><text xml:space="preserve" font-family="Palatino-Roman,Palatino" font-size="24.0" fill="#404040" transform="matrix(1.00, 0.00, -0.00, -1.00, 548.5, 503.9)"> </text><text xml:space="preserve" font-family="Palatino-Roman,Palatino" font-size="24.0" fill="#404040" transform="matrix(1.00, 0.00, -0.00, -1.00, 554.5, 503.9)">d</text><text xml:space="preserve" font-family="Palatino-Roman,Palatino" font-size="24.0" fill="#404040" transform="matrix(1.00, 0.00, -0.00, -1.00, 569.2, 503.9)">e</text><text xml:space="preserve" font-family="Palatino-Roman,Palatino" font-size="24.0" fill="#404040" transform="matrix(1.00, 0.00, -0.00, -1.00, 580.7, 503.9)">v</text><text xml:space="preserve" font-family="Palatino-Roman,Palatino" font-size="24.0" fill="#404040" transform="matrix(1.00, 0.00, -0.00, -1.00, 594.2, 503.9)">i</text><text xml:space="preserve" font-family="Palatino-Roman,Palatino" font-size="24.0" fill="#404040" transform="matrix(1.00, 0.00, -0.00, -1.00, 601.2, 503.9)">c</text><text xml:space="preserve" font-family="Palatino-Roman,Palatino" font-size="24.0" fill="#404040" transform="matrix(1.00, 0.00, -0.00, -1.00, 611.9, 503.9)">e</text><text xml:space="preserve" font-family="Palatino-Roman,Palatino" font-size="24.0" fill="#404040" transform="matrix(1.00, 0.00, -0.00, -1.00, 623.4, 503.9)">s</text><text xml:space="preserve" font-family="Palatino-Roman,Palatino" font-size="24.0" fill="#404040" transform="matrix(1.00, 0.00, -0.00, -1.00, 633.5, 503.9)"> </text><text xml:space="preserve" font-family="Palatino-Roman,Palatino" font-size="24.0" fill="#404040" transform="matrix(1.00, 0.00, -0.00, -1.00, 639.5, 503.9)">t</text><text xml:space="preserve" font-family="Palatino-Roman,Palatino" font-size="24.0" fill="#404040" transform="matrix(1.00, 0.00, -0.00, -1.00, 647.4, 503.9)">o</text><text xml:space="preserve" font-family="Palatino-Roman,Palatino" font-size="24.0" fill="#404040" transform="matrix(1.00, 0.00, -0.00, -1.00, 660.5, 503.9)"> </text><text xml:space="preserve" font-family="Palatino-Roman,Palatino" font-size="24.0" fill="#404040" transform="matrix(1.00, 0.00, -0.00, -1.00, 666.5, 503.9)">a</text><text xml:space="preserve" font-family="Palatino-Roman,Palatino" font-size="24.0" fill="#404040" transform="matrix(1.00, 0.00, -0.00, -1.00, 678.5, 503.9)">c</text><text xml:space="preserve" font-family="Palatino-Roman,Palatino" font-size="24.0" fill="#404040" transform="matrix(1.00, 0.00, -0.00, -1.00, 689.1, 503.9)">t</text><text xml:space="preserve" font-family="Palatino-Roman,Palatino" font-size="24.0" fill="#404040" transform="matrix(1.00, 0.00, -0.00, -1.00, 697.0, 503.9)"> </text><text xml:space="preserve" font-family="Palatino-Roman,Palatino" font-size="24.0" fill="#404040" transform="matrix(1.00, 0.00, -0.00, -1.00, 703.0, 503.9)">a</text><text xml:space="preserve" font-family="Palatino-Roman,Palatino" font-size="24.0" fill="#404040" transform="matrix(1.00, 0.00, -0.00, -1.00, 715.0, 503.9)">s</text><text xml:space="preserve" font-family="Palatino-Roman,Palatino" font-size="24.0" fill="#404040" transform="matrix(1.00, 0.00, -0.00, -1.00, 725.1, 503.9)"> </text><text xml:space="preserve" font-family="Palatino-Roman,Palatino" font-size="24.0" fill="#404040" transform="matrix(1.00, 0.00, -0.00, -1.00, 731.1, 503.9)">n</text><text xml:space="preserve" font-family="Palatino-Roman,Palatino" font-size="24.0" fill="#404040" transform="matrix(1.00, 0.00, -0.00, -1.00, 745.1, 503.9)">o</text><text xml:space="preserve" font-family="Palatino-Roman,Palatino" font-size="24.0" fill="#404040" transform="matrix(1.00, 0.00, -0.00, -1.00, 758.2, 503.9)">d</text><text xml:space="preserve" font-family="Palatino-Roman,Palatino" font-size="24.0" fill="#404040" transform="matrix(1.00, 0.00, -0.00, -1.00, 772.8, 503.9)">e</text><text xml:space="preserve" font-family="Palatino-Roman,Palatino" font-size="24.0" fill="#404040" transform="matrix(1.00, 0.00, -0.00, -1.00, 784.3, 503.9)">s</text><text xml:space="preserve" font-family="Palatino-Roman,Palatino" font-size="24.0" fill="#404040" transform="matrix(1.00, 0.00, -0.00, -1.00, 347.2, 471.9)">(</text><text xml:space="preserve" font-family="Palatino-Roman,Palatino" font-size="24.0" fill="#404040" transform="matrix(1.00, 0.00, -0.00, -1.00, 355.2, 471.9)">r</text><text xml:space="preserve" font-family="Palatino-Roman,Palatino" font-size="24.0" fill="#404040" transform="matrix(1.00, 0.00, -0.00, -1.00, 364.3, 471.9)">o</text><text xml:space="preserve" font-family="Palatino-Roman,Palatino" font-size="24.0" fill="#404040" transform="matrix(1.00, 0.00, -0.00, -1.00, 377.4, 471.9)">u</text><text xml:space="preserve" font-family="Palatino-Roman,Palatino" font-size="24.0" fill="#404040" transform="matrix(1.00, 0.00, -0.00, -1.00, 391.9, 471.9)">t</text><text xml:space="preserve" font-family="Palatino-Roman,Palatino" font-size="24.0" fill="#404040" transform="matrix(1.00, 0.00, -0.00, -1.00, 399.7, 471.9)">e</text><text xml:space="preserve" font-family="Palatino-Roman,Palatino" font-size="24.0" fill="#404040" transform="matrix(1.00, 0.00, -0.00, -1.00, 411.2, 471.9)">r</text><text xml:space="preserve" font-family="Palatino-Roman,Palatino" font-size="24.0" fill="#404040" transform="matrix(1.00, 0.00, -0.00, -1.00, 420.7, 471.9)">s</text><text xml:space="preserve" font-family="Palatino-Roman,Palatino" font-size="24.0" fill="#404040" transform="matrix(1.00, 0.00, -0.00, -1.00, 430.8, 471.9)"> </text><text xml:space="preserve" font-family="Palatino-Roman,Palatino" font-size="24.0" fill="#404040" transform="matrix(1.00, 0.00, -0.00, -1.00, 436.8, 471.9)">m</text><text xml:space="preserve" font-family="Palatino-Roman,Palatino" font-size="24.0" fill="#404040" transform="matrix(1.00, 0.00, -0.00, -1.00, 458.0, 471.9)">o</text><text xml:space="preserve" font-family="Palatino-Roman,Palatino" font-size="24.0" fill="#404040" transform="matrix(1.00, 0.00, -0.00, -1.00, 471.1, 471.9)">s</text><text xml:space="preserve" font-family="Palatino-Roman,Palatino" font-size="24.0" fill="#404040" transform="matrix(1.00, 0.00, -0.00, -1.00, 481.3, 471.9)">t</text><text xml:space="preserve" font-family="Palatino-Roman,Palatino" font-size="24.0" fill="#404040" transform="matrix(1.00, 0.00, -0.00, -1.00, 489.1, 471.9)"> </text><text xml:space="preserve" font-family="Palatino-Roman,Palatino" font-size="24.0" fill="#404040" transform="matrix(1.00, 0.00, -0.00, -1.00, 495.1, 471.9)">e</text><text xml:space="preserve" font-family="Palatino-Roman,Palatino" font-size="24.0" fill="#404040" transform="matrix(1.00, 0.00, -0.00, -1.00, 506.6, 471.9)">f</text><text xml:space="preserve" font-family="Palatino-Roman,Palatino" font-size="24.0" fill="#404040" transform="matrix(1.00, 0.00, -0.00, -1.00, 514.6, 471.9)">ﬁ</text><text xml:space="preserve" font-family="Palatino-Roman,Palatino" font-size="24.0" fill="#404040" transform="matrix(1.00, 0.00, -0.00, -1.00, 529.1, 471.9)">c</text><text xml:space="preserve" font-family="Palatino-Roman,Palatino" font-size="24.0" fill="#404040" transform="matrix(1.00, 0.00, -0.00, -1.00, 539.8, 471.9)">i</text><text xml:space="preserve" font-family="Palatino-Roman,Palatino" font-size="24.0" fill="#404040" transform="matrix(1.00, 0.00, -0.00, -1.00, 546.8, 471.9)">e</text><text xml:space="preserve" font-family="Palatino-Roman,Palatino" font-size="24.0" fill="#404040" transform="matrix(1.00, 0.00, -0.00, -1.00, 558.3, 471.9)">n</text><text xml:space="preserve" font-family="Palatino-Roman,Palatino" font-size="24.0" fill="#404040" transform="matrix(1.00, 0.00, -0.00, -1.00, 572.2, 471.9)">t</text><text xml:space="preserve" font-family="Palatino-Roman,Palatino" font-size="24.0" fill="#404040" transform="matrix(1.00, 0.00, -0.00, -1.00, 580.1, 471.9)">,</text><text xml:space="preserve" font-family="Palatino-Roman,Palatino" font-size="24.0" fill="#404040" transform="matrix(1.00, 0.00, -0.00, -1.00, 586.1, 471.9)"> </text><text xml:space="preserve" font-family="Palatino-Roman,Palatino" font-size="24.0" fill="#404040" transform="matrix(1.00, 0.00, -0.00, -1.00, 592.1, 471.9)">t</text><text xml:space="preserve" font-family="Palatino-Roman,Palatino" font-size="24.0" fill="#404040" transform="matrix(1.00, 0.00, -0.00, -1.00, 599.9, 471.9)">h</text><text xml:space="preserve" font-family="Palatino-Roman,Palatino" font-size="24.0" fill="#404040" transform="matrix(1.00, 0.00, -0.00, -1.00, 613.9, 471.9)">o</text><text xml:space="preserve" font-family="Palatino-Roman,Palatino" font-size="24.0" fill="#404040" transform="matrix(1.00, 0.00, -0.00, -1.00, 627.0, 471.9)">u</text><text xml:space="preserve" font-family="Palatino-Roman,Palatino" font-size="24.0" fill="#404040" transform="matrix(1.00, 0.00, -0.00, -1.00, 641.4, 471.9)">g</text><text xml:space="preserve" font-family="Palatino-Roman,Palatino" font-size="24.0" fill="#404040" transform="matrix(1.00, 0.00, -0.00, -1.00, 654.8, 471.9)">h</text><text xml:space="preserve" font-family="Palatino-Roman,Palatino" font-size="24.0" fill="#404040" transform="matrix(1.00, 0.00, -0.00, -1.00, 668.8, 471.9)">)</text><text xml:space="preserve" font-family="Palatino-Roman,Palatino" font-size="24.0" fill="#404040" transform="matrix(1.00, 0.00, -0.00, -1.00, 336.5, 263.4)">M</text><text xml:space="preserve" font-family="Palatino-Roman,Palatino" font-size="24.0" fill="#404040" transform="matrix(1.00, 0.00, -0.00, -1.00, 359.2, 263.4)">e</text><text xml:space="preserve" font-family="Palatino-Roman,Palatino" font-size="24.0" fill="#404040" transform="matrix(1.00, 0.00, -0.00, -1.00, 370.7, 263.4)">r</text><text xml:space="preserve" font-family="Palatino-Roman,Palatino" font-size="24.0" fill="#404040" transform="matrix(1.00, 0.00, -0.00, -1.00, 380.2, 263.4)">a</text><text xml:space="preserve" font-family="Palatino-Roman,Palatino" font-size="24.0" fill="#404040" transform="matrix(1.00, 0.00, -0.00, -1.00, 392.2, 263.4)">k</text><text xml:space="preserve" font-family="Palatino-Roman,Palatino" font-size="24.0" fill="#404040" transform="matrix(1.00, 0.00, -0.00, -1.00, 405.5, 263.4)">i</text><text xml:space="preserve" font-family="Palatino-Roman,Palatino" font-size="24.0" fill="#404040" transform="matrix(1.00, 0.00, -0.00, -1.00, 412.5, 263.4)"> </text><text xml:space="preserve" font-family="Palatino-Roman,Palatino" font-size="24.0" fill="#404040" transform="matrix(1.00, 0.00, -0.00, -1.00, 418.5, 263.4)">(</text><text xml:space="preserve" font-family="Palatino-Roman,Palatino" font-size="24.0" fill="#404040" transform="matrix(1.00, 0.00, -0.00, -1.00, 426.5, 263.4)">C</text><text xml:space="preserve" font-family="Palatino-Roman,Palatino" font-size="24.0" fill="#404040" transform="matrix(1.00, 0.00, -0.00, -1.00, 443.5, 263.4)">i</text><text xml:space="preserve" font-family="Palatino-Roman,Palatino" font-size="24.0" fill="#404040" transform="matrix(1.00, 0.00, -0.00, -1.00, 450.5, 263.4)">s</text><text xml:space="preserve" font-family="Palatino-Roman,Palatino" font-size="24.0" fill="#404040" transform="matrix(1.00, 0.00, -0.00, -1.00, 460.7, 263.4)">c</text><text xml:space="preserve" font-family="Palatino-Roman,Palatino" font-size="24.0" fill="#404040" transform="matrix(1.00, 0.00, -0.00, -1.00, 471.3, 263.4)">o</text><text xml:space="preserve" font-family="Palatino-Roman,Palatino" font-size="24.0" fill="#404040" transform="matrix(1.00, 0.00, -0.00, -1.00, 484.4, 263.4)">)</text><text xml:space="preserve" font-family="Palatino-Roman,Palatino" font-size="24.0" fill="#404040" transform="matrix(1.00, 0.00, -0.00, -1.00, 492.4, 263.4)">,</text><text xml:space="preserve" font-family="Palatino-Roman,Palatino" font-size="24.0" fill="#404040" transform="matrix(1.00, 0.00, -0.00, -1.00, 498.4, 263.4)"> </text><text xml:space="preserve" font-family="Palatino-Roman,Palatino" font-size="24.0" fill="#404040" transform="matrix(1.00, 0.00, -0.00, -1.00, 504.4, 263.4)">O</text><text xml:space="preserve" font-family="Palatino-Roman,Palatino" font-size="24.0" fill="#404040" transform="matrix(1.00, 0.00, -0.00, -1.00, 523.3, 263.4)">p</text><text xml:space="preserve" font-family="Palatino-Roman,Palatino" font-size="24.0" fill="#404040" transform="matrix(1.00, 0.00, -0.00, -1.00, 537.7, 263.4)">e</text><text xml:space="preserve" font-family="Palatino-Roman,Palatino" font-size="24.0" fill="#404040" transform="matrix(1.00, 0.00, -0.00, -1.00, 549.2, 263.4)">n</text><text xml:space="preserve" font-family="Palatino-Roman,Palatino" font-size="24.0" fill="#404040" transform="matrix(1.00, 0.00, -0.00, -1.00, 563.2, 263.4)">M</text><text xml:space="preserve" font-family="Palatino-Roman,Palatino" font-size="24.0" fill="#404040" transform="matrix(1.00, 0.00, -0.00, -1.00, 585.9, 263.4)">e</text><text xml:space="preserve" font-family="Palatino-Roman,Palatino" font-size="24.0" fill="#404040" transform="matrix(1.00, 0.00, -0.00, -1.00, 597.4, 263.4)">s</text><text xml:space="preserve" font-family="Palatino-Roman,Palatino" font-size="24.0" fill="#404040" transform="matrix(1.00, 0.00, -0.00, -1.00, 607.5, 263.4)">h</text><text xml:space="preserve" font-family="Palatino-Roman,Palatino" font-size="24.0" fill="#404040" transform="matrix(1.00, 0.00, -0.00, -1.00, 621.5, 263.4)">,</text><text xml:space="preserve" font-family="Palatino-Roman,Palatino" font-size="24.0" fill="#404040" transform="matrix(1.00, 0.00, -0.00, -1.00, 627.5, 263.4)"> </text><text xml:space="preserve" font-family="Palatino-Roman,Palatino" font-size="24.0" fill="#404040" transform="matrix(1.00, 0.00, -0.00, -1.00, 633.5, 263.4)">e</text><text xml:space="preserve" font-family="Palatino-Roman,Palatino" font-size="24.0" fill="#404040" transform="matrix(1.00, 0.00, -0.00, -1.00, 645.0, 263.4)">t</text><text xml:space="preserve" font-family="Palatino-Roman,Palatino" font-size="24.0" fill="#404040" transform="matrix(1.00, 0.00, -0.00, -1.00, 652.8, 263.4)">c</text><text xml:space="preserve" font-family="Palatino-Roman,Palatino" font-size="24.0" fill="#404040" transform="matrix(1.00, 0.00, -0.00, -1.00, 663.5, 263.4)">…</text><text xml:space="preserve" font-family="Palatino-Roman,Palatino" font-size="24.0" fill="#404040" transform="matrix(1.00, 0.00, -0.00, -1.00, 455.9, 231.4)">a</text><text xml:space="preserve" font-family="Palatino-Roman,Palatino" font-size="24.0" fill="#404040" transform="matrix(1.00, 0.00, -0.00, -1.00, 467.9, 231.4)">r</text><text xml:space="preserve" font-family="Palatino-Roman,Palatino" font-size="24.0" fill="#404040" transform="matrix(1.00, 0.00, -0.00, -1.00, 476.9, 231.4)">e</text><text xml:space="preserve" font-family="Palatino-Roman,Palatino" font-size="24.0" fill="#404040" transform="matrix(1.00, 0.00, -0.00, -1.00, 488.4, 231.4)"> </text><text xml:space="preserve" font-family="Palatino-Roman,Palatino" font-size="24.0" fill="#404040" transform="matrix(1.00, 0.00, -0.00, -1.00, 494.4, 231.4)">c</text><text xml:space="preserve" font-family="Palatino-Roman,Palatino" font-size="24.0" fill="#404040" transform="matrix(1.00, 0.00, -0.00, -1.00, 505.1, 231.4)">l</text><text xml:space="preserve" font-family="Palatino-Roman,Palatino" font-size="24.0" fill="#404040" transform="matrix(1.00, 0.00, -0.00, -1.00, 512.0, 231.4)">o</text><text xml:space="preserve" font-family="Palatino-Roman,Palatino" font-size="24.0" fill="#404040" transform="matrix(1.00, 0.00, -0.00, -1.00, 525.1, 231.4)">s</text><text xml:space="preserve" font-family="Palatino-Roman,Palatino" font-size="24.0" fill="#404040" transform="matrix(1.00, 0.00, -0.00, -1.00, 535.3, 231.4)">e</text><text xml:space="preserve" font-family="Palatino-Roman,Palatino" font-size="24.0" fill="#404040" transform="matrix(1.00, 0.00, -0.00, -1.00, 546.8, 231.4)">d</text><text xml:space="preserve" font-family="Palatino-Roman,Palatino" font-size="24.0" fill="#404040" transform="matrix(1.00, 0.00, -0.00, -1.00, 561.5, 231.4)">!</text><text xml:space="preserve" font-family="Palatino-Roman,Palatino" font-size="24.0" fill="#404040" transform="matrix(1.00, 0.00, -0.00, -1.00, 114.0, 367.7)">S</text><text xml:space="preserve" font-family="Palatino-Roman,Palatino" font-size="24.0" fill="#404040" transform="matrix(1.00, 0.00, -0.00, -1.00, 126.6, 367.7)">m</text><text xml:space="preserve" font-family="Palatino-Roman,Palatino" font-size="24.0" fill="#404040" transform="matrix(1.00, 0.00, -0.00, -1.00, 147.8, 367.7)">a</text><text xml:space="preserve" font-family="Palatino-Roman,Palatino" font-size="24.0" fill="#404040" transform="matrix(1.00, 0.00, -0.00, -1.00, 159.8, 367.7)">l</text><text xml:space="preserve" font-family="Palatino-Roman,Palatino" font-size="24.0" fill="#404040" transform="matrix(1.00, 0.00, -0.00, -1.00, 166.7, 367.7)">l</text><text xml:space="preserve" font-family="Palatino-Roman,Palatino" font-size="24.0" fill="#404040" transform="matrix(1.00, 0.00, -0.00, -1.00, 173.7, 367.7)"> </text><text xml:space="preserve" font-family="Palatino-Roman,Palatino" font-size="24.0" fill="#404040" transform="matrix(1.00, 0.00, -0.00, -1.00, 179.7, 367.7)">s</text><text xml:space="preserve" font-family="Palatino-Roman,Palatino" font-size="24.0" fill="#404040" transform="matrix(1.00, 0.00, -0.00, -1.00, 189.9, 367.7)">c</text><text xml:space="preserve" font-family="Palatino-Roman,Palatino" font-size="24.0" fill="#404040" transform="matrix(1.00, 0.00, -0.00, -1.00, 200.5, 367.7)">a</text><text xml:space="preserve" font-family="Palatino-Roman,Palatino" font-size="24.0" fill="#404040" transform="matrix(1.00, 0.00, -0.00, -1.00, 212.5, 367.7)">l</text><text xml:space="preserve" font-family="Palatino-Roman,Palatino" font-size="24.0" fill="#404040" transform="matrix(1.00, 0.00, -0.00, -1.00, 219.5, 367.7)">e</text><text xml:space="preserve" font-family="Palatino-Roman,Palatino" font-size="24.0" fill="#404040" transform="matrix(1.00, 0.00, -0.00, -1.00, 231.0, 367.7)"> </text><text xml:space="preserve" font-family="Palatino-Roman,Palatino" font-size="24.0" fill="#404040" transform="matrix(1.00, 0.00, -0.00, -1.00, 237.0, 367.7)">i</text><text xml:space="preserve" font-family="Palatino-Roman,Palatino" font-size="24.0" fill="#404040" transform="matrix(1.00, 0.00, -0.00, -1.00, 244.0, 367.7)">m</text><text xml:space="preserve" font-family="Palatino-Roman,Palatino" font-size="24.0" fill="#404040" transform="matrix(1.00, 0.00, -0.00, -1.00, 265.2, 367.7)">p</text><text xml:space="preserve" font-family="Palatino-Roman,Palatino" font-size="24.0" fill="#404040" transform="matrix(1.00, 0.00, -0.00, -1.00, 279.6, 367.7)">l</text><text xml:space="preserve" font-family="Palatino-Roman,Palatino" font-size="24.0" fill="#404040" transform="matrix(1.00, 0.00, -0.00, -1.00, 286.6, 367.7)">e</text><text xml:space="preserve" font-family="Palatino-Roman,Palatino" font-size="24.0" fill="#404040" transform="matrix(1.00, 0.00, -0.00, -1.00, 298.1, 367.7)">m</text><text xml:space="preserve" font-family="Palatino-Roman,Palatino" font-size="24.0" fill="#404040" transform="matrix(1.00, 0.00, -0.00, -1.00, 319.3, 367.7)">e</text><text xml:space="preserve" font-family="Palatino-Roman,Palatino" font-size="24.0" fill="#404040" transform="matrix(1.00, 0.00, -0.00, -1.00, 330.8, 367.7)">n</text><text xml:space="preserve" font-family="Palatino-Roman,Palatino" font-size="24.0" fill="#404040" transform="matrix(1.00, 0.00, -0.00, -1.00, 344.7, 367.7)">t</text><text xml:space="preserve" font-family="Palatino-Roman,Palatino" font-size="24.0" fill="#404040" transform="matrix(1.00, 0.00, -0.00, -1.00, 352.6, 367.7)">a</text><text xml:space="preserve" font-family="Palatino-Roman,Palatino" font-size="24.0" fill="#404040" transform="matrix(1.00, 0.00, -0.00, -1.00, 364.6, 367.7)">t</text><text xml:space="preserve" font-family="Palatino-Roman,Palatino" font-size="24.0" fill="#404040" transform="matrix(1.00, 0.00, -0.00, -1.00, 372.4, 367.7)">i</text><text xml:space="preserve" font-family="Palatino-Roman,Palatino" font-size="24.0" fill="#404040" transform="matrix(1.00, 0.00, -0.00, -1.00, 379.4, 367.7)">o</text><text xml:space="preserve" font-family="Palatino-Roman,Palatino" font-size="24.0" fill="#404040" transform="matrix(1.00, 0.00, -0.00, -1.00, 392.5, 367.7)">n</text><text xml:space="preserve" font-family="Palatino-Roman,Palatino" font-size="24.0" fill="#404040" transform="matrix(1.00, 0.00, -0.00, -1.00, 406.5, 367.7)">s</text><text xml:space="preserve" font-family="Palatino-Roman,Palatino" font-size="24.0" fill="#404040" transform="matrix(1.00, 0.00, -0.00, -1.00, 416.6, 367.7)"> </text><text xml:space="preserve" font-family="Palatino-Roman,Palatino" font-size="24.0" fill="#404040" transform="matrix(1.00, 0.00, -0.00, -1.00, 422.6, 367.7)">w</text><text xml:space="preserve" font-family="Palatino-Roman,Palatino" font-size="24.0" fill="#404040" transform="matrix(1.00, 0.00, -0.00, -1.00, 442.6, 367.7)">i</text><text xml:space="preserve" font-family="Palatino-Roman,Palatino" font-size="24.0" fill="#404040" transform="matrix(1.00, 0.00, -0.00, -1.00, 449.6, 367.7)">t</text><text xml:space="preserve" font-family="Palatino-Roman,Palatino" font-size="24.0" fill="#404040" transform="matrix(1.00, 0.00, -0.00, -1.00, 457.5, 367.7)">h</text><text xml:space="preserve" font-family="Palatino-Roman,Palatino" font-size="24.0" fill="#404040" transform="matrix(1.00, 0.00, -0.00, -1.00, 471.4, 367.7)">i</text><text xml:space="preserve" font-family="Palatino-Roman,Palatino" font-size="24.0" fill="#404040" transform="matrix(1.00, 0.00, -0.00, -1.00, 478.4, 367.7)">n</text><text xml:space="preserve" font-family="Palatino-Roman,Palatino" font-size="24.0" fill="#404040" transform="matrix(1.00, 0.00, -0.00, -1.00, 492.4, 367.7)"> </text><text xml:space="preserve" font-family="Palatino-Roman,Palatino" font-size="24.0" fill="#404040" transform="matrix(1.00, 0.00, -0.00, -1.00, 498.4, 367.7)">b</text><text xml:space="preserve" font-family="Palatino-Roman,Palatino" font-size="24.0" fill="#404040" transform="matrix(1.00, 0.00, -0.00, -1.00, 511.7, 367.7)">u</text><text xml:space="preserve" font-family="Palatino-Roman,Palatino" font-size="24.0" fill="#404040" transform="matrix(1.00, 0.00, -0.00, -1.00, 526.1, 367.7)">s</text><text xml:space="preserve" font-family="Palatino-Roman,Palatino" font-size="24.0" fill="#404040" transform="matrix(1.00, 0.00, -0.00, -1.00, 536.3, 367.7)">i</text><text xml:space="preserve" font-family="Palatino-Roman,Palatino" font-size="24.0" fill="#404040" transform="matrix(1.00, 0.00, -0.00, -1.00, 543.3, 367.7)">n</text><text xml:space="preserve" font-family="Palatino-Roman,Palatino" font-size="24.0" fill="#404040" transform="matrix(1.00, 0.00, -0.00, -1.00, 557.3, 367.7)">e</text><text xml:space="preserve" font-family="Palatino-Roman,Palatino" font-size="24.0" fill="#404040" transform="matrix(1.00, 0.00, -0.00, -1.00, 568.8, 367.7)">s</text><text xml:space="preserve" font-family="Palatino-Roman,Palatino" font-size="24.0" fill="#404040" transform="matrix(1.00, 0.00, -0.00, -1.00, 578.9, 367.7)">s</text><text xml:space="preserve" font-family="Palatino-Roman,Palatino" font-size="24.0" fill="#404040" transform="matrix(1.00, 0.00, -0.00, -1.00, 589.1, 367.7)">e</text><text xml:space="preserve" font-family="Palatino-Roman,Palatino" font-size="24.0" fill="#404040" transform="matrix(1.00, 0.00, -0.00, -1.00, 600.6, 367.7)">s</text><text xml:space="preserve" font-family="Palatino-Roman,Palatino" font-size="24.0" fill="#404040" transform="matrix(1.00, 0.00, -0.00, -1.00, 610.8, 367.7)">,</text><text xml:space="preserve" font-family="Palatino-Roman,Palatino" font-size="24.0" fill="#404040" transform="matrix(1.00, 0.00, -0.00, -1.00, 616.8, 367.7)"> </text><text xml:space="preserve" font-family="Palatino-Roman,Palatino" font-size="24.0" fill="#404040" transform="matrix(1.00, 0.00, -0.00, -1.00, 622.8, 367.7)">f</text><text xml:space="preserve" font-family="Palatino-Roman,Palatino" font-size="24.0" fill="#404040" transform="matrix(1.00, 0.00, -0.00, -1.00, 630.7, 367.7)">a</text><text xml:space="preserve" font-family="Palatino-Roman,Palatino" font-size="24.0" fill="#404040" transform="matrix(1.00, 0.00, -0.00, -1.00, 642.7, 367.7)">c</text><text xml:space="preserve" font-family="Palatino-Roman,Palatino" font-size="24.0" fill="#404040" transform="matrix(1.00, 0.00, -0.00, -1.00, 653.4, 367.7)">t</text><text xml:space="preserve" font-family="Palatino-Roman,Palatino" font-size="24.0" fill="#404040" transform="matrix(1.00, 0.00, -0.00, -1.00, 661.2, 367.7)">o</text><text xml:space="preserve" font-family="Palatino-Roman,Palatino" font-size="24.0" fill="#404040" transform="matrix(1.00, 0.00, -0.00, -1.00, 674.3, 367.7)">r</text><text xml:space="preserve" font-family="Palatino-Roman,Palatino" font-size="24.0" fill="#404040" transform="matrix(1.00, 0.00, -0.00, -1.00, 683.8, 367.7)">i</text><text xml:space="preserve" font-family="Palatino-Roman,Palatino" font-size="24.0" fill="#404040" transform="matrix(1.00, 0.00, -0.00, -1.00, 690.8, 367.7)">e</text><text xml:space="preserve" font-family="Palatino-Roman,Palatino" font-size="24.0" fill="#404040" transform="matrix(1.00, 0.00, -0.00, -1.00, 702.3, 367.7)">s</text><text xml:space="preserve" font-family="Palatino-Roman,Palatino" font-size="24.0" fill="#404040" transform="matrix(1.00, 0.00, -0.00, -1.00, 712.5, 367.7)">,</text><text xml:space="preserve" font-family="Palatino-Roman,Palatino" font-size="24.0" fill="#404040" transform="matrix(1.00, 0.00, -0.00, -1.00, 718.5, 367.7)"> </text><text xml:space="preserve" font-family="Palatino-Roman,Palatino" font-size="24.0" fill="#404040" transform="matrix(1.00, 0.00, -0.00, -1.00, 724.5, 367.7)">h</text><text xml:space="preserve" font-family="Palatino-Roman,Palatino" font-size="24.0" fill="#404040" transform="matrix(1.00, 0.00, -0.00, -1.00, 738.4, 367.7)">o</text><text xml:space="preserve" font-family="Palatino-Roman,Palatino" font-size="24.0" fill="#404040" transform="matrix(1.00, 0.00, -0.00, -1.00, 751.5, 367.7)">t</text><text xml:space="preserve" font-family="Palatino-Roman,Palatino" font-size="24.0" fill="#404040" transform="matrix(1.00, 0.00, -0.00, -1.00, 759.4, 367.7)">e</text><text xml:space="preserve" font-family="Palatino-Roman,Palatino" font-size="24.0" fill="#404040" transform="matrix(1.00, 0.00, -0.00, -1.00, 770.9, 367.7)">l</text><text xml:space="preserve" font-family="Palatino-Roman,Palatino" font-size="24.0" fill="#404040" transform="matrix(1.00, 0.00, -0.00, -1.00, 777.8, 367.7)">s</text><text xml:space="preserve" font-family="Palatino-Roman,Palatino" font-size="24.0" fill="#404040" transform="matrix(1.00, 0.00, -0.00, -1.00, 788.0, 367.7)">,</text><text xml:space="preserve" font-family="Palatino-Roman,Palatino" font-size="24.0" fill="#404040" transform="matrix(1.00, 0.00, -0.00, -1.00, 794.0, 367.7)"> </text><text xml:space="preserve" font-family="Palatino-Roman,Palatino" font-size="24.0" fill="#404040" transform="matrix(1.00, 0.00, -0.00, -1.00, 800.0, 367.7)">e</text><text xml:space="preserve" font-family="Palatino-Roman,Palatino" font-size="24.0" fill="#404040" transform="matrix(1.00, 0.00, -0.00, -1.00, 811.5, 367.7)">t</text><text xml:space="preserve" font-family="Palatino-Roman,Palatino" font-size="24.0" fill="#404040" transform="matrix(1.00, 0.00, -0.00, -1.00, 819.3, 367.7)">c</text><text xml:space="preserve" font-family="Palatino-Roman,Palatino" font-size="24.0" fill="#404040" transform="matrix(1.00, 0.00, -0.00, -1.00, 830.0, 367.7)">…</text></g></svg>