<?xml version="1.0" encoding="UTF-8" standalone="no"?><svg xmlns="http://www.w3.org/2000/svg" xmlns:xlink="http://www.w3.org/1999/xlink" clip-rule="evenodd" stroke-miterlimit="10" viewBox="0 0 1024 768"><desc>SVG generated by Keynote</desc><defs></defs><g transform="matrix(1.00, 0.00, -0.00, -1.00, 0.0, 768.0)"><g><clipPath id="clip0x7ffd1973c6a0"><path d="M 0.0 768.0 L 1024.0 768.0 L 1024.0 0.0 L 0.0 0.0 Z M 0.0 768.0 "></path></clipPath><g clip-path="url(#clip0x7ffd1973c6a0)"><image xlink:href="../../524A64CF-8346-4612-AEB3-13D03E94EA2C/assets/8A97F831B44C6305266B84CB83B0E791.jpeg" width="2048.00" height="1536.00" transform="matrix(0.50, 0.00, -0.00, -0.50, 0.0, 768.0)"></image></g></g><g opacity="0.30"><g><clipPath id="clip0x7ffd18fd32e0"><path d="M 39.0 595.0 L 986.0 595.0 L 986.0 599.0 L 39.0 599.0 Z M 39.0 595.0 "></path></clipPath><g clip-path="url(#clip0x7ffd18fd32e0)"><path d="M 0.0 0.5 L 944.7 0.5 L 944.7 0.5 L 0.0 0.5 Z M 0.0 0.0 " fill="none" stroke="#434343" stroke-width="1.00" transform="matrix(1.00, 0.00, 0.00, -1.00, 40.0, 597.0)"></path></g></g></g><g opacity="0.30"><g><clipPath id="clip0x7ffd18fd5070"><path d="M 39.0 716.0 L 986.0 716.0 L 986.0 720.0 L 39.0 720.0 Z M 39.0 716.0 "></path></clipPath><g clip-path="url(#clip0x7ffd18fd5070)"><path d="M 0.0 0.5 L 944.7 0.5 L 944.7 0.5 L 0.0 0.5 Z M 0.0 0.0 " fill="none" stroke="#434343" stroke-width="1.00" transform="matrix(1.00, 0.00, 0.00, -1.00, 40.0, 718.0)"></path></g></g></g><text xml:space="preserve" font-family="BodoniSvtyTwoITCTT-Book,Bodoni 72" font-size="70.0" fill="#D93D2A" transform="matrix(1.00, 0.00, -0.00, -1.00, 181.6, 632.6)">S</text><text xml:space="preserve" font-family="BodoniSvtyTwoITCTT-Book,Bodoni 72" font-size="70.0" fill="#D93D2A" transform="matrix(1.00, 0.00, -0.00, -1.00, 216.5, 632.6)">t</text><text xml:space="preserve" font-family="BodoniSvtyTwoITCTT-Book,Bodoni 72" font-size="70.0" fill="#D93D2A" transform="matrix(1.00, 0.00, -0.00, -1.00, 236.4, 632.6)">a</text><text xml:space="preserve" font-family="BodoniSvtyTwoITCTT-Book,Bodoni 72" font-size="70.0" fill="#D93D2A" transform="matrix(1.00, 0.00, -0.00, -1.00, 264.2, 632.6)">r</text><text xml:space="preserve" font-family="BodoniSvtyTwoITCTT-Book,Bodoni 72" font-size="70.0" fill="#D93D2A" transform="matrix(1.00, 0.00, -0.00, -1.00, 287.8, 632.6)">t</text><text xml:space="preserve" font-family="BodoniSvtyTwoITCTT-Book,Bodoni 72" font-size="70.0" fill="#D93D2A" transform="matrix(1.00, 0.00, -0.00, -1.00, 307.7, 632.6)"> </text><text xml:space="preserve" font-family="BodoniSvtyTwoITCTT-Book,Bodoni 72" font-size="70.0" fill="#D93D2A" transform="matrix(1.00, 0.00, -0.00, -1.00, 320.7, 632.6)">w</text><text xml:space="preserve" font-family="BodoniSvtyTwoITCTT-Book,Bodoni 72" font-size="70.0" fill="#D93D2A" transform="matrix(1.00, 0.00, -0.00, -1.00, 362.7, 632.6)">i</text><text xml:space="preserve" font-family="BodoniSvtyTwoITCTT-Book,Bodoni 72" font-size="70.0" fill="#D93D2A" transform="matrix(1.00, 0.00, -0.00, -1.00, 380.2, 632.6)">t</text><text xml:space="preserve" font-family="BodoniSvtyTwoITCTT-Book,Bodoni 72" font-size="70.0" fill="#D93D2A" transform="matrix(1.00, 0.00, -0.00, -1.00, 400.1, 632.6)">h</text><text xml:space="preserve" font-family="BodoniSvtyTwoITCTT-Book,Bodoni 72" font-size="70.0" fill="#D93D2A" transform="matrix(1.00, 0.00, -0.00, -1.00, 433.5, 632.6)"> </text><text xml:space="preserve" font-family="BodoniSvtyTwoITCTT-Book,Bodoni 72" font-size="70.0" fill="#D93D2A" transform="matrix(1.00, 0.00, -0.00, -1.00, 446.5, 632.6)">o</text><text xml:space="preserve" font-family="BodoniSvtyTwoITCTT-Book,Bodoni 72" font-size="70.0" fill="#D93D2A" transform="matrix(1.00, 0.00, -0.00, -1.00, 480.1, 632.6)">p</text><text xml:space="preserve" font-family="BodoniSvtyTwoITCTT-Book,Bodoni 72" font-size="70.0" fill="#D93D2A" transform="matrix(1.00, 0.00, -0.00, -1.00, 514.3, 632.6)">e</text><text xml:space="preserve" font-family="BodoniSvtyTwoITCTT-Book,Bodoni 72" font-size="70.0" fill="#D93D2A" transform="matrix(1.00, 0.00, -0.00, -1.00, 544.4, 632.6)">n</text><text xml:space="preserve" font-family="BodoniSvtyTwoITCTT-Book,Bodoni 72" font-size="70.0" fill="#D93D2A" transform="matrix(1.00, 0.00, -0.00, -1.00, 578.7, 632.6)"> </text><text xml:space="preserve" font-family="BodoniSvtyTwoITCTT-Book,Bodoni 72" font-size="70.0" fill="#D93D2A" transform="matrix(1.00, 0.00, -0.00, -1.00, 591.7, 632.6)">s</text><text xml:space="preserve" font-family="BodoniSvtyTwoITCTT-Book,Bodoni 72" font-size="70.0" fill="#D93D2A" transform="matrix(1.00, 0.00, -0.00, -1.00, 617.0, 632.6)">t</text><text xml:space="preserve" font-family="BodoniSvtyTwoITCTT-Book,Bodoni 72" font-size="70.0" fill="#D93D2A" transform="matrix(1.00, 0.00, -0.00, -1.00, 636.9, 632.6)">a</text><text xml:space="preserve" font-family="BodoniSvtyTwoITCTT-Book,Bodoni 72" font-size="70.0" fill="#D93D2A" transform="matrix(1.00, 0.00, -0.00, -1.00, 664.7, 632.6)">n</text><text xml:space="preserve" font-family="BodoniSvtyTwoITCTT-Book,Bodoni 72" font-size="70.0" fill="#D93D2A" transform="matrix(1.00, 0.00, -0.00, -1.00, 698.9, 632.6)">d</text><text xml:space="preserve" font-family="BodoniSvtyTwoITCTT-Book,Bodoni 72" font-size="70.0" fill="#D93D2A" transform="matrix(1.00, 0.00, -0.00, -1.00, 732.3, 632.6)">a</text><text xml:space="preserve" font-family="BodoniSvtyTwoITCTT-Book,Bodoni 72" font-size="70.0" fill="#D93D2A" transform="matrix(1.00, 0.00, -0.00, -1.00, 760.0, 632.6)">r</text><text xml:space="preserve" font-family="BodoniSvtyTwoITCTT-Book,Bodoni 72" font-size="70.0" fill="#D93D2A" transform="matrix(1.00, 0.00, -0.00, -1.00, 783.7, 632.6)">d</text><text xml:space="preserve" font-family="BodoniSvtyTwoITCTT-Book,Bodoni 72" font-size="70.0" fill="#D93D2A" transform="matrix(1.00, 0.00, -0.00, -1.00, 817.0, 632.6)">s</text><image xlink:href="393C78287A921FB9B95092E04F1816DF.png" width="626.00" height="254.00" transform="matrix(1.00, 0.00, -0.00, -1.00, 199.0, 556.0)"></image><image xlink:href="5A2814A4B1BF87A0FBBB6C5E19F54B01.png" width="150.00" height="38.00" transform="matrix(1.78, 0.00, -0.00, -1.79, 45.0, 224.0)"></image><image xlink:href="E559FAC921DBC42E52F5736882FA636E.png" width="800.00" height="319.00" transform="matrix(0.41, 0.00, -0.00, -0.41, 366.0, 261.0)"></image><image xlink:href="75D06478AE6C7B3D506BCF02D255C3C5.png" width="668.00" height="257.00" transform="matrix(0.38, 0.00, -0.00, -0.38, 746.0, 239.0)"></image></g></svg>