<?xml version="1.0" encoding="UTF-8" standalone="no"?><svg xmlns="http://www.w3.org/2000/svg" xmlns:xlink="http://www.w3.org/1999/xlink" clip-rule="evenodd" stroke-miterlimit="10" viewBox="0 0 1024 768"><desc>SVG generated by Keynote</desc><defs></defs><g transform="matrix(1.00, 0.00, -0.00, -1.00, 0.0, 768.0)"><g><clipPath id="clip0x7ffd2c583fe0"><path d="M 0.0 768.0 L 1024.0 768.0 L 1024.0 0.0 L 0.0 0.0 Z M 0.0 768.0 "></path></clipPath><g clip-path="url(#clip0x7ffd2c583fe0)"><image xlink:href="../../524A64CF-8346-4612-AEB3-13D03E94EA2C/assets/8A97F831B44C6305266B84CB83B0E791.jpeg" width="2048.00" height="1536.00" transform="matrix(0.50, 0.00, -0.00, -0.50, 0.0, 768.0)"></image></g></g><g opacity="0.30"><g><clipPath id="clip0x7ffd2c657020"><path d="M 39.0 595.0 L 986.0 595.0 L 986.0 599.0 L 39.0 599.0 Z M 39.0 595.0 "></path></clipPath><g clip-path="url(#clip0x7ffd2c657020)"><path d="M 0.0 0.5 L 944.7 0.5 L 944.7 0.5 L 0.0 0.5 Z M 0.0 0.0 " fill="none" stroke="#434343" stroke-width="1.00" transform="matrix(1.00, 0.00, 0.00, -1.00, 40.0, 597.0)"></path></g></g></g><g opacity="0.30"><g><clipPath id="clip0x7ffd2c65f680"><path d="M 39.0 716.0 L 986.0 716.0 L 986.0 720.0 L 39.0 720.0 Z M 39.0 716.0 "></path></clipPath><g clip-path="url(#clip0x7ffd2c65f680)"><path d="M 0.0 0.5 L 944.7 0.5 L 944.7 0.5 L 0.0 0.5 Z M 0.0 0.0 " fill="none" stroke="#434343" stroke-width="1.00" transform="matrix(1.00, 0.00, 0.00, -1.00, 40.0, 718.0)"></path></g></g></g><text xml:space="preserve" font-family="BodoniSvtyTwoITCTT-Book,Bodoni 72" font-size="70.0" fill="#D93D2A" transform="matrix(1.00, 0.00, -0.00, -1.00, 60.6, 632.6)">C</text><text xml:space="preserve" font-family="BodoniSvtyTwoITCTT-Book,Bodoni 72" font-size="70.0" fill="#D93D2A" transform="matrix(1.00, 0.00, -0.00, -1.00, 106.3, 632.6)">e</text><text xml:space="preserve" font-family="BodoniSvtyTwoITCTT-Book,Bodoni 72" font-size="70.0" fill="#D93D2A" transform="matrix(1.00, 0.00, -0.00, -1.00, 136.4, 632.6)">n</text><text xml:space="preserve" font-family="BodoniSvtyTwoITCTT-Book,Bodoni 72" font-size="70.0" fill="#D93D2A" transform="matrix(1.00, 0.00, -0.00, -1.00, 170.6, 632.6)">t</text><text xml:space="preserve" font-family="BodoniSvtyTwoITCTT-Book,Bodoni 72" font-size="70.0" fill="#D93D2A" transform="matrix(1.00, 0.00, -0.00, -1.00, 190.5, 632.6)">r</text><text xml:space="preserve" font-family="BodoniSvtyTwoITCTT-Book,Bodoni 72" font-size="70.0" fill="#D93D2A" transform="matrix(1.00, 0.00, -0.00, -1.00, 214.2, 632.6)">a</text><text xml:space="preserve" font-family="BodoniSvtyTwoITCTT-Book,Bodoni 72" font-size="70.0" fill="#D93D2A" transform="matrix(1.00, 0.00, -0.00, -1.00, 242.0, 632.6)">l</text><text xml:space="preserve" font-family="BodoniSvtyTwoITCTT-Book,Bodoni 72" font-size="70.0" fill="#D93D2A" transform="matrix(1.00, 0.00, -0.00, -1.00, 258.4, 632.6)">i</text><text xml:space="preserve" font-family="BodoniSvtyTwoITCTT-Book,Bodoni 72" font-size="70.0" fill="#D93D2A" transform="matrix(1.00, 0.00, -0.00, -1.00, 276.0, 632.6)">s</text><text xml:space="preserve" font-family="BodoniSvtyTwoITCTT-Book,Bodoni 72" font-size="70.0" fill="#D93D2A" transform="matrix(1.00, 0.00, -0.00, -1.00, 301.3, 632.6)">a</text><text xml:space="preserve" font-family="BodoniSvtyTwoITCTT-Book,Bodoni 72" font-size="70.0" fill="#D93D2A" transform="matrix(1.00, 0.00, -0.00, -1.00, 329.1, 632.6)">t</text><text xml:space="preserve" font-family="BodoniSvtyTwoITCTT-Book,Bodoni 72" font-size="70.0" fill="#D93D2A" transform="matrix(1.00, 0.00, -0.00, -1.00, 349.0, 632.6)">i</text><text xml:space="preserve" font-family="BodoniSvtyTwoITCTT-Book,Bodoni 72" font-size="70.0" fill="#D93D2A" transform="matrix(1.00, 0.00, -0.00, -1.00, 366.6, 632.6)">o</text><text xml:space="preserve" font-family="BodoniSvtyTwoITCTT-Book,Bodoni 72" font-size="70.0" fill="#D93D2A" transform="matrix(1.00, 0.00, -0.00, -1.00, 400.2, 632.6)">n</text><text xml:space="preserve" font-family="BodoniSvtyTwoITCTT-Book,Bodoni 72" font-size="70.0" fill="#D93D2A" transform="matrix(1.00, 0.00, -0.00, -1.00, 434.4, 632.6)"> </text><text xml:space="preserve" font-family="BodoniSvtyTwoITCTT-Book,Bodoni 72" font-size="70.0" fill="#D93D2A" transform="matrix(1.00, 0.00, -0.00, -1.00, 447.4, 632.6)">o</text><text xml:space="preserve" font-family="BodoniSvtyTwoITCTT-Book,Bodoni 72" font-size="70.0" fill="#D93D2A" transform="matrix(1.00, 0.00, -0.00, -1.00, 481.0, 632.6)">f</text><text xml:space="preserve" font-family="BodoniSvtyTwoITCTT-Book,Bodoni 72" font-size="70.0" fill="#D93D2A" transform="matrix(1.00, 0.00, -0.00, -1.00, 499.5, 632.6)"> </text><text xml:space="preserve" font-family="BodoniSvtyTwoITCTT-Book,Bodoni 72" font-size="70.0" fill="#D93D2A" transform="matrix(1.00, 0.00, -0.00, -1.00, 512.5, 632.6)">C</text><text xml:space="preserve" font-family="BodoniSvtyTwoITCTT-Book,Bodoni 72" font-size="70.0" fill="#D93D2A" transform="matrix(1.00, 0.00, -0.00, -1.00, 558.2, 632.6)">o</text><text xml:space="preserve" font-family="BodoniSvtyTwoITCTT-Book,Bodoni 72" font-size="70.0" fill="#D93D2A" transform="matrix(1.00, 0.00, -0.00, -1.00, 591.8, 632.6)">m</text><text xml:space="preserve" font-family="BodoniSvtyTwoITCTT-Book,Bodoni 72" font-size="70.0" fill="#D93D2A" transform="matrix(1.00, 0.00, -0.00, -1.00, 641.0, 632.6)">m</text><text xml:space="preserve" font-family="BodoniSvtyTwoITCTT-Book,Bodoni 72" font-size="70.0" fill="#D93D2A" transform="matrix(1.00, 0.00, -0.00, -1.00, 690.3, 632.6)">u</text><text xml:space="preserve" font-family="BodoniSvtyTwoITCTT-Book,Bodoni 72" font-size="70.0" fill="#D93D2A" transform="matrix(1.00, 0.00, -0.00, -1.00, 724.6, 632.6)">n</text><text xml:space="preserve" font-family="BodoniSvtyTwoITCTT-Book,Bodoni 72" font-size="70.0" fill="#D93D2A" transform="matrix(1.00, 0.00, -0.00, -1.00, 758.8, 632.6)">i</text><text xml:space="preserve" font-family="BodoniSvtyTwoITCTT-Book,Bodoni 72" font-size="70.0" fill="#D93D2A" transform="matrix(1.00, 0.00, -0.00, -1.00, 776.4, 632.6)">c</text><text xml:space="preserve" font-family="BodoniSvtyTwoITCTT-Book,Bodoni 72" font-size="70.0" fill="#D93D2A" transform="matrix(1.00, 0.00, -0.00, -1.00, 805.0, 632.6)">a</text><text xml:space="preserve" font-family="BodoniSvtyTwoITCTT-Book,Bodoni 72" font-size="70.0" fill="#D93D2A" transform="matrix(1.00, 0.00, -0.00, -1.00, 832.8, 632.6)">t</text><text xml:space="preserve" font-family="BodoniSvtyTwoITCTT-Book,Bodoni 72" font-size="70.0" fill="#D93D2A" transform="matrix(1.00, 0.00, -0.00, -1.00, 852.7, 632.6)">i</text><text xml:space="preserve" font-family="BodoniSvtyTwoITCTT-Book,Bodoni 72" font-size="70.0" fill="#D93D2A" transform="matrix(1.00, 0.00, -0.00, -1.00, 870.2, 632.6)">o</text><text xml:space="preserve" font-family="BodoniSvtyTwoITCTT-Book,Bodoni 72" font-size="70.0" fill="#D93D2A" transform="matrix(1.00, 0.00, -0.00, -1.00, 903.8, 632.6)">n</text><text xml:space="preserve" font-family="BodoniSvtyTwoITCTT-Book,Bodoni 72" font-size="70.0" fill="#D93D2A" transform="matrix(1.00, 0.00, -0.00, -1.00, 938.1, 632.6)">s</text><text xml:space="preserve" font-family="Palatino-Roman,Palatino" font-size="24.0" fill="#404040" transform="matrix(1.00, 0.00, -0.00, -1.00, 235.7, 522.9)">M</text><text xml:space="preserve" font-family="Palatino-Roman,Palatino" font-size="24.0" fill="#404040" transform="matrix(1.00, 0.00, -0.00, -1.00, 258.3, 522.9)">a</text><text xml:space="preserve" font-family="Palatino-Roman,Palatino" font-size="24.0" fill="#404040" transform="matrix(1.00, 0.00, -0.00, -1.00, 270.3, 522.9)">j</text><text xml:space="preserve" font-family="Palatino-Roman,Palatino" font-size="24.0" fill="#404040" transform="matrix(1.00, 0.00, -0.00, -1.00, 276.0, 522.9)">o</text><text xml:space="preserve" font-family="Palatino-Roman,Palatino" font-size="24.0" fill="#404040" transform="matrix(1.00, 0.00, -0.00, -1.00, 289.1, 522.9)">r</text><text xml:space="preserve" font-family="Palatino-Roman,Palatino" font-size="24.0" fill="#404040" transform="matrix(1.00, 0.00, -0.00, -1.00, 298.5, 522.9)"> </text><text xml:space="preserve" font-family="Palatino-Roman,Palatino" font-size="24.0" fill="#404040" transform="matrix(1.00, 0.00, -0.00, -1.00, 304.5, 522.9)">c</text><text xml:space="preserve" font-family="Palatino-Roman,Palatino" font-size="24.0" fill="#404040" transform="matrix(1.00, 0.00, -0.00, -1.00, 315.2, 522.9)">o</text><text xml:space="preserve" font-family="Palatino-Roman,Palatino" font-size="24.0" fill="#404040" transform="matrix(1.00, 0.00, -0.00, -1.00, 328.3, 522.9)">r</text><text xml:space="preserve" font-family="Palatino-Roman,Palatino" font-size="24.0" fill="#404040" transform="matrix(1.00, 0.00, -0.00, -1.00, 337.8, 522.9)">p</text><text xml:space="preserve" font-family="Palatino-Roman,Palatino" font-size="24.0" fill="#404040" transform="matrix(1.00, 0.00, -0.00, -1.00, 352.2, 522.9)">o</text><text xml:space="preserve" font-family="Palatino-Roman,Palatino" font-size="24.0" fill="#404040" transform="matrix(1.00, 0.00, -0.00, -1.00, 365.3, 522.9)">r</text><text xml:space="preserve" font-family="Palatino-Roman,Palatino" font-size="24.0" fill="#404040" transform="matrix(1.00, 0.00, -0.00, -1.00, 374.8, 522.9)">a</text><text xml:space="preserve" font-family="Palatino-Roman,Palatino" font-size="24.0" fill="#404040" transform="matrix(1.00, 0.00, -0.00, -1.00, 386.8, 522.9)">t</text><text xml:space="preserve" font-family="Palatino-Roman,Palatino" font-size="24.0" fill="#404040" transform="matrix(1.00, 0.00, -0.00, -1.00, 394.6, 522.9)">i</text><text xml:space="preserve" font-family="Palatino-Roman,Palatino" font-size="24.0" fill="#404040" transform="matrix(1.00, 0.00, -0.00, -1.00, 401.6, 522.9)">o</text><text xml:space="preserve" font-family="Palatino-Roman,Palatino" font-size="24.0" fill="#404040" transform="matrix(1.00, 0.00, -0.00, -1.00, 414.7, 522.9)">n</text><text xml:space="preserve" font-family="Palatino-Roman,Palatino" font-size="24.0" fill="#404040" transform="matrix(1.00, 0.00, -0.00, -1.00, 428.7, 522.9)">s</text><text xml:space="preserve" font-family="Palatino-Roman,Palatino" font-size="24.0" fill="#404040" transform="matrix(1.00, 0.00, -0.00, -1.00, 438.8, 522.9)"> </text><text xml:space="preserve" font-family="Palatino-Roman,Palatino" font-size="24.0" fill="#404040" transform="matrix(1.00, 0.00, -0.00, -1.00, 444.8, 522.9)">c</text><text xml:space="preserve" font-family="Palatino-Roman,Palatino" font-size="24.0" fill="#404040" transform="matrix(1.00, 0.00, -0.00, -1.00, 455.5, 522.9)">o</text><text xml:space="preserve" font-family="Palatino-Roman,Palatino" font-size="24.0" fill="#404040" transform="matrix(1.00, 0.00, -0.00, -1.00, 468.6, 522.9)">n</text><text xml:space="preserve" font-family="Palatino-Roman,Palatino" font-size="24.0" fill="#404040" transform="matrix(1.00, 0.00, -0.00, -1.00, 482.5, 522.9)">t</text><text xml:space="preserve" font-family="Palatino-Roman,Palatino" font-size="24.0" fill="#404040" transform="matrix(1.00, 0.00, -0.00, -1.00, 490.4, 522.9)">r</text><text xml:space="preserve" font-family="Palatino-Roman,Palatino" font-size="24.0" fill="#404040" transform="matrix(1.00, 0.00, -0.00, -1.00, 499.4, 522.9)">o</text><text xml:space="preserve" font-family="Palatino-Roman,Palatino" font-size="24.0" fill="#404040" transform="matrix(1.00, 0.00, -0.00, -1.00, 512.5, 522.9)">l</text><text xml:space="preserve" font-family="Palatino-Roman,Palatino" font-size="24.0" fill="#404040" transform="matrix(1.00, 0.00, -0.00, -1.00, 519.5, 522.9)">l</text><text xml:space="preserve" font-family="Palatino-Roman,Palatino" font-size="24.0" fill="#404040" transform="matrix(1.00, 0.00, -0.00, -1.00, 526.5, 522.9)">i</text><text xml:space="preserve" font-family="Palatino-Roman,Palatino" font-size="24.0" fill="#404040" transform="matrix(1.00, 0.00, -0.00, -1.00, 533.5, 522.9)">n</text><text xml:space="preserve" font-family="Palatino-Roman,Palatino" font-size="24.0" fill="#404040" transform="matrix(1.00, 0.00, -0.00, -1.00, 547.5, 522.9)">g</text><text xml:space="preserve" font-family="Palatino-Roman,Palatino" font-size="24.0" fill="#404040" transform="matrix(1.00, 0.00, -0.00, -1.00, 560.8, 522.9)"> </text><text xml:space="preserve" font-family="Palatino-Roman,Palatino" font-size="24.0" fill="#404040" transform="matrix(1.00, 0.00, -0.00, -1.00, 566.8, 522.9)">a</text><text xml:space="preserve" font-family="Palatino-Roman,Palatino" font-size="24.0" fill="#404040" transform="matrix(1.00, 0.00, -0.00, -1.00, 578.8, 522.9)">c</text><text xml:space="preserve" font-family="Palatino-Roman,Palatino" font-size="24.0" fill="#404040" transform="matrix(1.00, 0.00, -0.00, -1.00, 589.5, 522.9)">c</text><text xml:space="preserve" font-family="Palatino-Roman,Palatino" font-size="24.0" fill="#404040" transform="matrix(1.00, 0.00, -0.00, -1.00, 600.1, 522.9)">e</text><text xml:space="preserve" font-family="Palatino-Roman,Palatino" font-size="24.0" fill="#404040" transform="matrix(1.00, 0.00, -0.00, -1.00, 611.6, 522.9)">s</text><text xml:space="preserve" font-family="Palatino-Roman,Palatino" font-size="24.0" fill="#404040" transform="matrix(1.00, 0.00, -0.00, -1.00, 621.8, 522.9)">s</text><text xml:space="preserve" font-family="Palatino-Roman,Palatino" font-size="24.0" fill="#404040" transform="matrix(1.00, 0.00, -0.00, -1.00, 631.9, 522.9)"> </text><text xml:space="preserve" font-family="Palatino-Roman,Palatino" font-size="24.0" fill="#404040" transform="matrix(1.00, 0.00, -0.00, -1.00, 637.9, 522.9)">t</text><text xml:space="preserve" font-family="Palatino-Roman,Palatino" font-size="24.0" fill="#404040" transform="matrix(1.00, 0.00, -0.00, -1.00, 645.8, 522.9)">o</text><text xml:space="preserve" font-family="Palatino-Roman,Palatino" font-size="24.0" fill="#404040" transform="matrix(1.00, 0.00, -0.00, -1.00, 658.9, 522.9)"> </text><text xml:space="preserve" font-family="Palatino-Roman,Palatino" font-size="24.0" fill="#404040" transform="matrix(1.00, 0.00, -0.00, -1.00, 664.9, 522.9)">t</text><text xml:space="preserve" font-family="Palatino-Roman,Palatino" font-size="24.0" fill="#404040" transform="matrix(1.00, 0.00, -0.00, -1.00, 672.7, 522.9)">h</text><text xml:space="preserve" font-family="Palatino-Roman,Palatino" font-size="24.0" fill="#404040" transform="matrix(1.00, 0.00, -0.00, -1.00, 686.7, 522.9)">e</text><text xml:space="preserve" font-family="Palatino-Roman,Palatino" font-size="24.0" fill="#404040" transform="matrix(1.00, 0.00, -0.00, -1.00, 698.2, 522.9)"> </text><text xml:space="preserve" font-family="Palatino-Roman,Palatino" font-size="24.0" fill="#404040" transform="matrix(1.00, 0.00, -0.00, -1.00, 704.2, 522.9)">I</text><text xml:space="preserve" font-family="Palatino-Roman,Palatino" font-size="24.0" fill="#404040" transform="matrix(1.00, 0.00, -0.00, -1.00, 712.2, 522.9)">n</text><text xml:space="preserve" font-family="Palatino-Roman,Palatino" font-size="24.0" fill="#404040" transform="matrix(1.00, 0.00, -0.00, -1.00, 726.2, 522.9)">t</text><text xml:space="preserve" font-family="Palatino-Roman,Palatino" font-size="24.0" fill="#404040" transform="matrix(1.00, 0.00, -0.00, -1.00, 734.0, 522.9)">e</text><text xml:space="preserve" font-family="Palatino-Roman,Palatino" font-size="24.0" fill="#404040" transform="matrix(1.00, 0.00, -0.00, -1.00, 745.5, 522.9)">r</text><text xml:space="preserve" font-family="Palatino-Roman,Palatino" font-size="24.0" fill="#404040" transform="matrix(1.00, 0.00, -0.00, -1.00, 755.0, 522.9)">n</text><text xml:space="preserve" font-family="Palatino-Roman,Palatino" font-size="24.0" fill="#404040" transform="matrix(1.00, 0.00, -0.00, -1.00, 769.0, 522.9)">e</text><text xml:space="preserve" font-family="Palatino-Roman,Palatino" font-size="24.0" fill="#404040" transform="matrix(1.00, 0.00, -0.00, -1.00, 780.5, 522.9)">t</text><image xlink:href="../../524A64CF-8346-4612-AEB3-13D03E94EA2C/assets/293D6409748AC108880C3CE1AC295785.jpeg" width="480.00" height="269.00" transform="matrix(1.00, 0.00, -0.00, -1.00, 38.0, 455.0)"></image><image xlink:href="../../524A64CF-8346-4612-AEB3-13D03E94EA2C/assets/54AEDA0BFFA81D37C05D411DE6D9A2DC.jpeg" width="420.00" height="316.00" transform="matrix(0.85, 0.00, -0.00, -0.85, 560.0, 455.0)"></image></g></svg>