<?xml version="1.0" encoding="UTF-8" standalone="no"?><svg xmlns="http://www.w3.org/2000/svg" xmlns:xlink="http://www.w3.org/1999/xlink" clip-rule="evenodd" stroke-miterlimit="10" viewBox="0 0 1024 768"><desc>SVG generated by Keynote</desc><defs></defs><g transform="matrix(1.00, 0.00, -0.00, -1.00, 0.0, 768.0)"><g><clipPath id="clip0x7ffd19873060"><path d="M 0.0 768.0 L 1024.0 768.0 L 1024.0 0.0 L 0.0 0.0 Z M 0.0 768.0 "></path></clipPath><g clip-path="url(#clip0x7ffd19873060)"><image xlink:href="../../524A64CF-8346-4612-AEB3-13D03E94EA2C/assets/8A97F831B44C6305266B84CB83B0E791.jpeg" width="2048.00" height="1536.00" transform="matrix(0.50, 0.00, -0.00, -0.50, 0.0, 768.0)"></image></g></g><g opacity="0.30"><g><clipPath id="clip0x7ffd198761d0"><path d="M 39.0 595.0 L 986.0 595.0 L 986.0 599.0 L 39.0 599.0 Z M 39.0 595.0 "></path></clipPath><g clip-path="url(#clip0x7ffd198761d0)"><path d="M 0.0 0.5 L 944.7 0.5 L 944.7 0.5 L 0.0 0.5 Z M 0.0 0.0 " fill="none" stroke="#434343" stroke-width="1.00" transform="matrix(1.00, 0.00, 0.00, -1.00, 40.0, 597.0)"></path></g></g></g><g opacity="0.30"><g><clipPath id="clip0x7ffd19877e30"><path d="M 39.0 716.0 L 986.0 716.0 L 986.0 720.0 L 39.0 720.0 Z M 39.0 716.0 "></path></clipPath><g clip-path="url(#clip0x7ffd19877e30)"><path d="M 0.0 0.5 L 944.7 0.5 L 944.7 0.5 L 0.0 0.5 Z M 0.0 0.0 " fill="none" stroke="#434343" stroke-width="1.00" transform="matrix(1.00, 0.00, 0.00, -1.00, 40.0, 718.0)"></path></g></g></g><text xml:space="preserve" font-family="BodoniSvtyTwoITCTT-Book,Bodoni 72" font-size="63.0" fill="#D93D2A" transform="matrix(1.00, 0.00, -0.00, -1.00, 47.3, 635.8)">C</text><text xml:space="preserve" font-family="BodoniSvtyTwoITCTT-Book,Bodoni 72" font-size="63.0" fill="#D93D2A" transform="matrix(1.00, 0.00, -0.00, -1.00, 88.5, 635.8)">o</text><text xml:space="preserve" font-family="BodoniSvtyTwoITCTT-Book,Bodoni 72" font-size="63.0" fill="#D93D2A" transform="matrix(1.00, 0.00, -0.00, -1.00, 118.7, 635.8)">m</text><text xml:space="preserve" font-family="BodoniSvtyTwoITCTT-Book,Bodoni 72" font-size="63.0" fill="#D93D2A" transform="matrix(1.00, 0.00, -0.00, -1.00, 163.0, 635.8)">p</text><text xml:space="preserve" font-family="BodoniSvtyTwoITCTT-Book,Bodoni 72" font-size="63.0" fill="#D93D2A" transform="matrix(1.00, 0.00, -0.00, -1.00, 193.8, 635.8)">e</text><text xml:space="preserve" font-family="BodoniSvtyTwoITCTT-Book,Bodoni 72" font-size="63.0" fill="#D93D2A" transform="matrix(1.00, 0.00, -0.00, -1.00, 220.9, 635.8)">t</text><text xml:space="preserve" font-family="BodoniSvtyTwoITCTT-Book,Bodoni 72" font-size="63.0" fill="#D93D2A" transform="matrix(1.00, 0.00, -0.00, -1.00, 238.8, 635.8)">i</text><text xml:space="preserve" font-family="BodoniSvtyTwoITCTT-Book,Bodoni 72" font-size="63.0" fill="#D93D2A" transform="matrix(1.00, 0.00, -0.00, -1.00, 254.6, 635.8)">t</text><text xml:space="preserve" font-family="BodoniSvtyTwoITCTT-Book,Bodoni 72" font-size="63.0" fill="#D93D2A" transform="matrix(1.00, 0.00, -0.00, -1.00, 272.5, 635.8)">i</text><text xml:space="preserve" font-family="BodoniSvtyTwoITCTT-Book,Bodoni 72" font-size="63.0" fill="#D93D2A" transform="matrix(1.00, 0.00, -0.00, -1.00, 288.3, 635.8)">o</text><text xml:space="preserve" font-family="BodoniSvtyTwoITCTT-Book,Bodoni 72" font-size="63.0" fill="#D93D2A" transform="matrix(1.00, 0.00, -0.00, -1.00, 318.5, 635.8)">n</text><text xml:space="preserve" font-family="BodoniSvtyTwoITCTT-Book,Bodoni 72" font-size="63.0" fill="#D93D2A" transform="matrix(1.00, 0.00, -0.00, -1.00, 349.3, 635.8)"> </text><text xml:space="preserve" font-family="BodoniSvtyTwoITCTT-Book,Bodoni 72" font-size="63.0" fill="#D93D2A" transform="matrix(1.00, 0.00, -0.00, -1.00, 361.1, 635.8)">f</text><text xml:space="preserve" font-family="BodoniSvtyTwoITCTT-Book,Bodoni 72" font-size="63.0" fill="#D93D2A" transform="matrix(1.00, 0.00, -0.00, -1.00, 377.7, 635.8)">o</text><text xml:space="preserve" font-family="BodoniSvtyTwoITCTT-Book,Bodoni 72" font-size="63.0" fill="#D93D2A" transform="matrix(1.00, 0.00, -0.00, -1.00, 407.9, 635.8)">r</text><text xml:space="preserve" font-family="BodoniSvtyTwoITCTT-Book,Bodoni 72" font-size="63.0" fill="#D93D2A" transform="matrix(1.00, 0.00, -0.00, -1.00, 429.2, 635.8)"> </text><text xml:space="preserve" font-family="BodoniSvtyTwoITCTT-Book,Bodoni 72" font-size="63.0" fill="#D93D2A" transform="matrix(1.00, 0.00, -0.00, -1.00, 440.9, 635.8)">t</text><text xml:space="preserve" font-family="BodoniSvtyTwoITCTT-Book,Bodoni 72" font-size="63.0" fill="#D93D2A" transform="matrix(1.00, 0.00, -0.00, -1.00, 458.8, 635.8)">h</text><text xml:space="preserve" font-family="BodoniSvtyTwoITCTT-Book,Bodoni 72" font-size="63.0" fill="#D93D2A" transform="matrix(1.00, 0.00, -0.00, -1.00, 488.9, 635.8)">e</text><text xml:space="preserve" font-family="BodoniSvtyTwoITCTT-Book,Bodoni 72" font-size="63.0" fill="#D93D2A" transform="matrix(1.00, 0.00, -0.00, -1.00, 516.0, 635.8)"> </text><text xml:space="preserve" font-family="BodoniSvtyTwoITCTT-Book,Bodoni 72" font-size="63.0" fill="#D93D2A" transform="matrix(1.00, 0.00, -0.00, -1.00, 527.7, 635.8)">b</text><text xml:space="preserve" font-family="BodoniSvtyTwoITCTT-Book,Bodoni 72" font-size="63.0" fill="#D93D2A" transform="matrix(1.00, 0.00, -0.00, -1.00, 558.0, 635.8)">e</text><text xml:space="preserve" font-family="BodoniSvtyTwoITCTT-Book,Bodoni 72" font-size="63.0" fill="#D93D2A" transform="matrix(1.00, 0.00, -0.00, -1.00, 585.1, 635.8)">n</text><text xml:space="preserve" font-family="BodoniSvtyTwoITCTT-Book,Bodoni 72" font-size="63.0" fill="#D93D2A" transform="matrix(1.00, 0.00, -0.00, -1.00, 615.9, 635.8)">e</text><text xml:space="preserve" font-family="BodoniSvtyTwoITCTT-Book,Bodoni 72" font-size="63.0" fill="#D93D2A" transform="matrix(1.00, 0.00, -0.00, -1.00, 643.0, 635.8)">f</text><text xml:space="preserve" font-family="BodoniSvtyTwoITCTT-Book,Bodoni 72" font-size="63.0" fill="#D93D2A" transform="matrix(1.00, 0.00, -0.00, -1.00, 659.6, 635.8)">i</text><text xml:space="preserve" font-family="BodoniSvtyTwoITCTT-Book,Bodoni 72" font-size="63.0" fill="#D93D2A" transform="matrix(1.00, 0.00, -0.00, -1.00, 675.4, 635.8)">t</text><text xml:space="preserve" font-family="BodoniSvtyTwoITCTT-Book,Bodoni 72" font-size="63.0" fill="#D93D2A" transform="matrix(1.00, 0.00, -0.00, -1.00, 693.3, 635.8)"> </text><text xml:space="preserve" font-family="BodoniSvtyTwoITCTT-Book,Bodoni 72" font-size="63.0" fill="#D93D2A" transform="matrix(1.00, 0.00, -0.00, -1.00, 705.0, 635.8)">o</text><text xml:space="preserve" font-family="BodoniSvtyTwoITCTT-Book,Bodoni 72" font-size="63.0" fill="#D93D2A" transform="matrix(1.00, 0.00, -0.00, -1.00, 735.3, 635.8)">f</text><text xml:space="preserve" font-family="BodoniSvtyTwoITCTT-Book,Bodoni 72" font-size="63.0" fill="#D93D2A" transform="matrix(1.00, 0.00, -0.00, -1.00, 751.9, 635.8)"> </text><text xml:space="preserve" font-family="BodoniSvtyTwoITCTT-Book,Bodoni 72" font-size="63.0" fill="#D93D2A" transform="matrix(1.00, 0.00, -0.00, -1.00, 763.6, 635.8)">e</text><text xml:space="preserve" font-family="BodoniSvtyTwoITCTT-Book,Bodoni 72" font-size="63.0" fill="#D93D2A" transform="matrix(1.00, 0.00, -0.00, -1.00, 790.7, 635.8)">v</text><text xml:space="preserve" font-family="BodoniSvtyTwoITCTT-Book,Bodoni 72" font-size="63.0" fill="#D93D2A" transform="matrix(1.00, 0.00, -0.00, -1.00, 814.9, 635.8)">e</text><text xml:space="preserve" font-family="BodoniSvtyTwoITCTT-Book,Bodoni 72" font-size="63.0" fill="#D93D2A" transform="matrix(1.00, 0.00, -0.00, -1.00, 842.0, 635.8)">r</text><text xml:space="preserve" font-family="BodoniSvtyTwoITCTT-Book,Bodoni 72" font-size="63.0" fill="#D93D2A" transform="matrix(1.00, 0.00, -0.00, -1.00, 863.3, 635.8)">y</text><text xml:space="preserve" font-family="BodoniSvtyTwoITCTT-Book,Bodoni 72" font-size="63.0" fill="#D93D2A" transform="matrix(1.00, 0.00, -0.00, -1.00, 888.6, 635.8)">o</text><text xml:space="preserve" font-family="BodoniSvtyTwoITCTT-Book,Bodoni 72" font-size="63.0" fill="#D93D2A" transform="matrix(1.00, 0.00, -0.00, -1.00, 918.8, 635.8)">n</text><text xml:space="preserve" font-family="BodoniSvtyTwoITCTT-Book,Bodoni 72" font-size="63.0" fill="#D93D2A" transform="matrix(1.00, 0.00, -0.00, -1.00, 949.6, 635.8)">e</text><image xlink:href="EB3170EDFAA78005B8E41C1267072B6D.jpeg" width="1061.00" height="1500.00" transform="matrix(0.39, 0.00, -0.00, -0.39, 303.0, 596.0)"></image></g></svg>